<svg width="116" height="76" viewBox="0 0 116 76" fill="none" xmlns="http://www.w3.org/2000/svg">
<g clip-path="url(#clip0_1_692)">
<path d="M68.161 0C73.0689 0 77.094 4.02248 77.094 9.02852C77.094 14.0346 73.0689 17.9593 68.161 17.9593C63.253 17.9593 59.1302 13.9353 59.1302 9.02852C59.1302 4.12178 63.1553 0 68.161 0Z" fill="#EFE4D8"/>
<path d="M82.88 24.8252V11.4195L99.223 5.12891V26.3778H109.198L108.255 30.7675H99.223V61.3979C99.223 65.5954 100.697 69.5674 106.486 69.5674C108.963 69.5674 111.588 68.1583 113.762 66.601L115.452 68.8597C111.008 73.0682 104.667 75.9999 98.8809 75.9999C86.7379 75.9999 82.8784 66.6956 82.8784 60.2268V24.8252H82.88Z" fill="#EFE4D8"/>
<path d="M76.3104 74.49V24.1602L55.1399 32.306L59.9659 47.2327V74.49H76.3104Z" fill="#EFE4D8"/>
<path d="M21.9368 59.54V74.5013H4.82596V61.6789V28.4776L0 13.551L21.9368 5.13086V59.54Z" fill="#EFE4D8"/>
<path d="M33.4585 74.5008L35.9306 68.5759L21.9368 48.5706L42.3064 30.605L34.7498 19.8096H58.9032L35.9322 40.0749L59.9658 74.4898L33.4585 74.5008Z" fill="#EFE4D8"/>
</g>
<defs>
<clipPath id="clip0_1_692">
<rect width="115.453" height="76" fill="white"/>
</clipPath>
</defs>
</svg>
