<svg width="84" height="66" viewBox="0 0 84 66" fill="none" xmlns="http://www.w3.org/2000/svg">
<path d="M16.1091 42.2333C16.1043 49.1954 16.0995 56.163 16.0947 63.125C16.0947 63.412 16.0947 63.6991 16.0947 64.0424H3.59532V63.1982C3.59532 50.7712 3.60013 38.3499 3.58088 25.923C3.58088 25.1745 3.43649 24.4034 3.24878 23.6774C2.57977 21.1053 1.86745 18.5445 1.15512 15.9837C0.789334 14.6611 0.394667 13.3497 0 11.9877C5.35207 9.59015 10.6656 7.20382 16.0947 4.77246V5.73487C16.0947 17.3739 16.0947 29.0129 16.0947 40.6462C16.0947 40.9389 16.1043 41.2315 16.1091 41.5242C16.114 41.603 16.1236 41.6874 16.1284 41.7662C16.1862 41.7381 16.2439 41.7099 16.3017 41.6762C17.9236 39.9934 19.536 38.3049 21.1628 36.6334C23.3431 34.3934 25.5378 32.1759 27.7181 29.9415C28.8011 28.8328 29.8744 27.7184 31.0006 26.5534C29.1909 23.5254 27.3908 20.52 25.5138 17.3795H43.1053C37.4597 23.2046 31.9247 28.9284 26.3609 34.6691C28.0647 37.5226 29.7877 40.4098 31.5108 43.2914C35.2842 49.6062 39.0528 55.9266 42.8406 62.2301C43.0331 62.5509 43.3748 62.7479 43.6444 63.0068C43.731 63.3614 43.8176 63.716 43.9091 64.0761C37.4741 64.0761 31.0391 64.0761 24.6041 64.0761C24.5752 63.9805 24.5415 63.8792 24.5127 63.7835C25.0854 62.3089 25.6678 60.84 26.2261 59.3541C26.2887 59.1909 26.255 58.9039 26.1635 58.7519C22.9581 53.3771 19.7478 48.0078 16.5279 42.6442C16.4316 42.481 16.3017 42.3515 16.1862 42.2052C16.1669 42.1771 16.1428 42.1489 16.1236 42.1208C16.1188 42.1546 16.1091 42.1883 16.1043 42.2221L16.1091 42.2333Z" fill="#C09166"/>
<path d="M82.7042 57.5237C83.1392 58.1656 83.5458 58.7625 83.9997 59.4325C83.7113 59.7197 83.4134 60.0632 83.0777 60.3391C82.0092 61.2231 80.9312 62.0903 79.8485 62.9461C79.3189 63.3684 78.7752 63.7738 78.2173 64.1342C78.0377 64.2525 77.7493 64.1342 77.5649 64.2525C76.3025 65.0577 74.8935 65.2097 73.5271 65.4687C72.5012 65.6601 71.4232 65.5588 70.3783 65.4687C69.4469 65.3899 68.5202 65.1759 67.6077 64.9507C67.3335 64.8831 67.116 64.5171 66.8418 64.382C64.2177 63.0869 62.5156 60.6882 61.4046 57.6926C60.8987 56.33 60.5488 54.8491 60.5441 53.3232C60.5299 39.404 60.5251 25.4848 60.5157 11.56C60.5157 11.1658 60.4779 10.766 60.4542 10.2931C61.9341 9.61175 63.4565 8.91354 64.9789 8.21532C67.0167 7.28062 69.0592 6.35155 71.097 5.40558C71.305 5.30986 71.4657 5.08463 71.6596 4.93823C71.7778 4.85377 71.9385 4.74116 72.0426 4.78057C72.1466 4.81999 72.2317 5.02269 72.2742 5.16909C72.3121 5.30986 72.2837 5.47878 72.2837 5.63644C72.2837 11.1433 72.2837 16.6502 72.2837 22.157V23.0298H79.3095C79.2906 23.6717 79.4561 24.2292 79.1346 24.7979C78.988 25.0569 78.9596 25.4679 78.988 25.8001C79.0353 26.4195 78.7894 26.8362 78.2788 26.8362C76.5011 26.8362 74.7281 26.8362 72.9503 26.8362H72.2837V27.6357C72.2837 36.0424 72.2837 44.4491 72.2837 52.8558C72.2837 54.3255 72.3641 55.7782 72.9267 57.1183C73.7163 58.999 75.0779 59.8323 76.7847 60.0125C78.6618 60.2096 80.2456 59.2861 81.7917 58.2219C82.0848 58.0192 82.3591 57.7827 82.6947 57.5181L82.7042 57.5237Z" fill="#C09166"/>
<path d="M43.5497 62.7047C43.5544 57.6101 43.5592 52.5156 43.5639 47.421C43.5639 45.6799 43.5401 43.9332 43.5735 42.1921C43.5925 41.1732 43.3689 40.2383 43.1024 39.2921C42.522 37.2263 41.9986 35.1437 41.4324 33.0723C41.1041 31.8686 40.7425 30.6706 40.4047 29.4725C40.2953 29.075 40.2049 28.6719 40.0907 28.196C45.1768 25.8951 50.2392 23.6053 55.3634 21.2876V64.0763C51.4334 64.0763 47.5225 64.0763 43.6163 64.0763C43.5925 63.6229 43.5735 63.1694 43.5497 62.7159V62.7047Z" fill="#C09166"/>
<path d="M50.2706 16.0328C46.354 15.826 43.1829 12.6318 43.2749 8.05306C43.362 3.7156 46.078 0.251384 50.1738 0.268619C51.8441 0.274364 53.3303 1.1476 54.5552 2.54363C55.5331 3.65815 56.1867 5.08291 56.5305 6.56511C56.7677 7.59921 56.5692 8.86884 56.3078 9.9489C56.0415 11.0577 55.5186 12.109 55.0006 13.1029C54.4632 14.137 53.5918 14.7804 52.638 15.1826C51.7279 15.5675 50.7886 15.849 50.2755 16.0328H50.2706Z" fill="#C09166"/>
</svg>