<svg xmlns="http://www.w3.org/2000/svg" viewBox="0 0 130 120"><path fill="currentColor" fill-rule="evenodd" d="M49.378 13.359C44.909 15.416 43 18.667 43 24.223V29H32.468c-18.249 0-20.47 2.193-20.464 20.2.003 9.529.316 11.813 2 14.574C15.785 66.696 16 68.819 16 83.477c0 17.901.639 20.768 5.145 23.098 4.207 2.175 83.652 2.098 87.875-.085 4.921-2.545 5.394-4.523 5.503-22.99.082-13.943.403-17.54 1.782-20 1.299-2.316 1.684-5.576 1.689-14.3.01-18.107-2.057-20.2-19.944-20.2H87v-4.984c0-4.032-.525-5.567-2.75-8.032l-2.75-3.048-14.5-.507c-11.334-.396-15.182-.193-17.622.93M48.2 18.2c-.66.66-1.2 3.36-1.2 6V29h36v-4.066C83 17.016 82.965 17 65.165 17c-10.928 0-16.133.368-16.965 1.2M52 33.746C12.831 34.042 16 32.699 16 49c0 15.344-.318 15.06 18.621 16.646 22.512 1.885 21.202 2.031 21.569-2.396l.31-3.75h17L74 63c.362 2.531 1.054 3.577 2.5 3.779 1.1.153 9.161-.339 17.914-1.093C114.575 63.947 114 64.451 114 48.544c0-9.502-.274-11.482-1.78-12.845-2.168-1.962-12.918-2.311-60.22-1.953m8 36.806v7.553l5.241-.303 5.242-.302.008-7.247.009-7.247-5.25-.003L60 63zM20 84.424c0 15.878.079 16.518 2.223 18.019C24.145 103.79 29.913 104 65 104s40.855-.21 42.777-1.557c2.144-1.501 2.223-2.142 2.223-17.975V68.05l-2.75.459c-1.513.252-9.257.93-17.211 1.507-9.241.669-14.74 1.487-15.234 2.266-.426.67-.781 2.665-.79 4.433C73.996 80.742 71.851 82 65 82c-7.379 0-9-1.152-9-6.393v-4.322l-15.75-1.204c-8.663-.662-16.762-1.41-18-1.662L20 67.962z"/></svg>