<svg xmlns="http://www.w3.org/2000/svg" viewBox="0 0 122 123"><path fill="currentColor" fill-rule="evenodd" d="M35.02 15.96c-2.204 4.322-2.654 10.006-.927 11.733.79.79.79 1.657 0 3.134C33.492 31.95 33 36.273 33 40.434 33 47.863 32.954 48 30.468 48c-3.721 0-9.148 2.534-10.388 4.85-1.394 2.606-1.402 15.681-.01 18.281.589 1.1 1.151 6.91 1.25 12.91l.18 10.91-2.738.601c-3.334.733-6.762 4.853-6.762 8.128 0 1.326 1.105 3.515 2.455 4.865L16.909 111h87.818l2.637-2.636c4.323-4.324 2.8-10.495-3.069-12.432l-3.41-1.125.519-11.653c.285-6.41.8-14.957 1.143-18.995.343-4.037.349-8.439.012-9.781-.81-3.228-6.138-6.37-10.809-6.374L88 48v-8.441c0-4.643-.448-8.718-.996-9.057-.626-.387-.419-1.732.557-3.62 1.663-3.216.878-7.733-2.196-12.632-2.103-3.354-3.72-2.757-6.166 2.277-2.551 5.251-2.768 8.313-.782 11.029 1.036 1.417 1.125 2.291.332 3.247-.598.719-1.293 4.883-1.546 9.253L76.743 48H66v-8.3c0-5.122-.459-8.759-1.2-9.5-.933-.933-.933-1.467 0-2.4 2.834-2.834-.695-15.8-4.3-15.8-1.944 0-5.5 7.129-5.5 11.026 0 1.708.451 3.949 1.003 4.979.67 1.252.67 2.079 0 2.493-.552.341-1.003 4.418-1.003 9.061V48H44v-7.566c0-4.161-.492-8.484-1.093-9.607-.79-1.477-.79-2.344 0-3.134C45.651 24.949 42.015 12 38.5 12c-.803 0-2.368 1.782-3.48 3.96m2.585 3.628C36.469 22.548 36.951 26 38.5 26c1.043 0 1.5-1.049 1.5-3.441 0-3.738-1.423-5.504-2.395-2.971m22.034-.894c-.351.352-.639 2.139-.639 3.973 0 2.296.467 3.333 1.5 3.333 1.043 0 1.5-1.049 1.5-3.441 0-3.365-1.085-5.141-2.361-3.865m21.994.821c-.348.907-.633 2.77-.633 4.14 0 1.844.455 2.397 1.75 2.129 1.241-.257 1.689-1.197 1.54-3.233-.261-3.556-1.788-5.301-2.657-3.036M37 40.5c0 6 .3 7.5 1.5 7.5s1.5-1.5 1.5-7.5-.3-7.5-1.5-7.5-1.5 1.5-1.5 7.5m22.667-6.833c-.367.366-.667 3.741-.667 7.5 0 5.407.313 6.833 1.5 6.833 1.2 0 1.5-1.5 1.5-7.5 0-6.897-.578-8.589-2.333-6.833m22 0c-.367.366-.667 3.741-.667 7.5 0 5.407.313 6.833 1.5 6.833 1.2 0 1.5-1.5 1.5-7.5 0-6.897-.578-8.589-2.333-6.833m-56.444 19.89C23.299 54.904 23 56.022 23 61.857c0 9.711 3.052 11.863 8.563 6.039 1.615-1.707 3.835-3.445 4.932-3.863 2.882-1.096 6.861.605 9.379 4.01C47.076 69.67 48.704 71 49.491 71c.788 0 3.214-1.8 5.392-4 2.184-2.206 4.927-4 6.117-4s3.933 1.794 6.117 4c2.178 2.2 4.535 4 5.238 4 .702 0 2.671-1.575 4.376-3.5 2.48-2.802 3.831-3.5 6.769-3.5s4.289.698 6.769 3.5C95.827 73.778 99 71.763 99 61.955 99 51.418 101.199 52 61.394 52c-29.108 0-34.266.222-36.171 1.557m8.167 17.948C31.321 73.83 29.396 75 27.64 75H25v20h72V75.25l-3.093-.619c-1.701-.34-4.356-1.971-5.901-3.625-3.553-3.803-5.852-3.809-9.006-.023-1.412 1.694-3.906 3.274-5.729 3.629-2.789.544-3.723.136-6.85-2.991C64.429 69.629 61.915 68 60.833 68s-3.507 1.632-5.388 3.627c-2.986 3.167-3.836 3.547-6.683 2.992-1.856-.362-4.339-1.929-5.762-3.636-3.256-3.909-5.789-3.771-9.61.522m-16.216 28.721c-1.576 1.576-1.484 4.271.192 5.662.981.815 13.393 1.06 44.141.873 39.485-.241 42.86-.396 43.879-2.011.805-1.276.805-2.224 0-3.5-1.019-1.617-4.38-1.767-44.071-1.974-31.815-.166-43.272.081-44.141.95"/></svg>