<svg xmlns="http://www.w3.org/2000/svg" viewBox="0 0 130 115"><path fill="currentColor" fill-rule="evenodd" d="M12.5 13c-1.269 2.053.788 3 6.52 3h5.903l.982 3.75c.54 2.063 3.316 13.748 6.168 25.967 5.045 21.613 5.142 22.311 3.556 25.651C34.733 73.257 34 75.544 34 76.451c0 3.116 2.91 7.269 5.986 8.543 2.813 1.166 2.947 1.422 1.547 2.97-2.621 2.896-1.947 8.776 1.39 12.113 4.108 4.108 8.248 3.952 12.677-.477 3.703-3.703 4.21-6.523 1.953-10.85L56.119 86h32.994l-1.556 2.223c-2.151 3.07-1.948 8.01.455 11.065 3.99 5.072 12.594 4.308 15.535-1.379 1.816-3.512 1.825-5.673.036-9.101-1.31-2.511-1.259-2.713.756-3 1.189-.169 2.161-.983 2.161-1.808 0-1.293-4.537-1.569-32.832-2-31.032-.473-32.909-.606-34.25-2.441-1.966-2.691-1.772-5.205.582-7.559 1.916-1.916 3.333-2 33.809-2 23.885 0 32.227-.311 33.488-1.25 1.091-.812 3.261-7.663 6.191-19.549 5.013-20.333 5.194-21.725 2.93-22.594-.87-.334-20.413-.607-43.429-.607H31.142l-1.179-5.75c-.649-3.163-1.636-6.312-2.194-7-1.227-1.513-14.356-1.728-15.269-.25m20.506 18.75c.003.962.409 3.325.903 5.25a261 261 0 0 1 1.513 6.25c.61 2.723.696 2.75 8.708 2.75h8.093l-.561-3.25c-.309-1.788-.86-5.388-1.225-8L49.773 30h-8.387c-7.322 0-8.385.222-8.38 1.75M54.412 34l1.176 8 .588 4H71V30H53.824zm21.255-3.333c-.367.366-.667 3.966-.667 8V46h14.795l1.102-6.332C92.681 29.424 93.082 30 84.167 30c-4.309 0-8.134.3-8.5.667m20.834.331c-.339.55-.881 4.15-1.204 8L94.71 46h7.578c8.334 0 7.565.633 9.712-8 .615-2.475 1.348-5.288 1.627-6.25.455-1.569-.371-1.75-8.001-1.75-4.679 0-8.786.449-9.125.998M37.042 50.25c.023.138.853 3.625 1.845 7.75l1.803 7.5 6.789.299 6.789.298-.717-7.278c-.395-4.004-.932-7.626-1.193-8.049-.414-.67-15.427-1.18-15.316-.52m20.47 7c.393 3.987.915 7.588 1.16 8 .246.412 3.119.75 6.387.75H71V50H56.797zm17.696.5.292 7.75h11.978l.7-5c.385-2.75.941-6.237 1.236-7.75L89.95 50H74.916zm18.424-5c-.289 1.513-.817 5.112-1.173 8L91.812 66h6.527c7.148 0 6.529.571 8.661-8 .615-2.475 1.348-5.288 1.627-6.25.451-1.556-.322-1.75-6.98-1.75-7.374 0-7.496.042-8.015 2.75M45.2 89.2c-1.719 1.719-1.48 6.377.426 8.283 2.34 2.34 6.529 1.522 8.283-1.618 1.318-2.36 1.293-2.907-.242-5.25-1.858-2.835-6.304-3.578-8.467-1.415m45.835.734C88.833 94.049 91.177 99 95.329 99c2.268 0 5.671-3.558 5.671-5.929 0-4.652-7.834-7.118-9.965-3.137"/></svg>