<svg xmlns="http://www.w3.org/2000/svg" viewBox="0 0 122 124"><path fill="currentColor" fill-rule="evenodd" d="M31 13.279c-1.38.69-2.915 2.65-3.426 4.375-.847 2.861-1.35 3.166-5.941 3.607-3.847.37-5.553 1.107-7.324 3.166L12 27.112V105.2l3.4 3.4 3.4 3.4h41.877c37.82 0 42.118-.165 44.35-1.704 5.024-3.463 4.907-2.418 4.941-44.123L110 26.846l-2.923-2.923C104.738 21.584 103.281 21 99.784 21c-4.068 0-4.437-.225-5.327-3.25-1.306-4.435-5.767-6.636-9.4-4.636-1.406.774-3.232 2.855-4.057 4.625l-1.5 3.218-18.731.021L42.038 21l-.631-2.516c-.644-2.563-4.772-6.496-6.792-6.469-.613.008-2.24.577-3.615 1.264m1.07 4.137c-.689.83-1.05 3.783-.872 7.146C31.745 34.944 38 34.317 38 23.88c0-6.334-3.17-9.79-5.93-6.464m52.965.518c-1.509 2.82-1.266 10.373.406 12.625 1.152 1.551 1.805 1.719 3.25.837 2.196-1.339 3.116-11.719 1.239-13.98-1.642-1.979-3.674-1.764-4.895.518m-67.38 8.895c-1.164 1.286-1.655 3.661-1.655 8V41h90v-6.429c0-7.693-1.388-9.571-7.071-9.571C95.44 25 95 25.271 95 27.418c0 3.809-1.015 5.538-4.224 7.198C85.643 37.27 80 33.258 80 26.953 80 25.085 79.182 25 61.111 25H42.223l-.649 3.457C40.874 32.19 36.957 36 33.82 36 30.834 36 27 31.527 27 28.045 27 25.18 26.773 25 23.155 25c-2.455 0-4.443.661-5.5 1.829M16 74.5c0 28.167.09 29.59 2 31.5 1.935 1.935 3.333 2 42.777 2 35.289 0 41.077-.21 43-1.557 2.213-1.549 2.223-1.691 2.223-31.5V45H16zm43.295-20.703c-.663.421-2.383 3.339-3.823 6.484-2.751 6.008-2.985 6.154-11.36 7.08-8.595.951-8.841 4.343-.792 10.938l4.425 3.626-1.532 6.402c-.842 3.521-1.249 7.137-.904 8.037.944 2.459 4.34 1.984 10.339-1.449l5.391-3.084 5.465 3.084c5.997 3.385 9.249 3.893 10.135 1.582.318-.826.001-4.401-.703-7.944l-1.281-6.443 5.206-4.887c3.803-3.571 5.025-5.357 4.536-6.632-.821-2.138-4.413-3.591-8.88-3.591-5.295 0-6.5-.904-9.13-6.851-2.943-6.655-4.468-8.021-7.092-6.352m-.825 9.287c-1.083 2.796-2.466 5.495-3.072 5.999-.607.504-3.93 1.212-7.385 1.573l-6.282.657 5.009 4.63 5.009 4.63-1.325 6.429c-.729 3.537-1.174 6.581-.99 6.765.184.185 2.5-1.038 5.146-2.716S60.052 88 60.858 88c.807 0 3.661 1.408 6.342 3.129 2.682 1.72 5.051 2.954 5.264 2.74s-.21-3.255-.941-6.758l-1.329-6.37 4.153-3.858c2.284-2.122 4.491-3.864 4.903-3.871.412-.006.75-.462.75-1.012s-1.463-1.005-3.25-1.011-4.903-.284-6.922-.618c-3.403-.563-3.834-1.039-5.872-6.489C62.746 60.647 61.46 58 61.098 58s-1.544 2.288-2.628 5.084"/></svg>