<svg xmlns="http://www.w3.org/2000/svg" viewBox="0 0 118 127"><path fill="currentColor" fill-rule="evenodd" d="M30.241 13.995c-4.558 2.778-7.234 7.589-7.234 13.005 0 4.705 2.784 10.599 5.499 11.641 2.077.797 1.872 2.359-.31 2.359-3.79 0-10.847 5.647-13.243 10.597-2.159 4.461-2.318 5.919-2.112 19.364.124 7.996.451 15.283.728 16.193.278.909 2.063 2.393 3.968 3.296L21 92.094v11.526c0 10.439.165 11.495 1.75 11.19 1.558-.3 1.75-1.745 1.75-13.192V88.762L21 87.631 17.5 86.5l-.274-15.566c-.261-14.777-.159-15.74 2.008-19C22.531 46.973 29.024 44 36.563 44c7.687 0 12.046 1.429 16.15 5.294 4.255 4.008 8.611 4.196 13.287.573 4.813-3.73 11.071-5.2 18.672-4.386 7.753.831 12.079 3.553 15.078 9.489 1.972 3.903 2.25 5.983 2.25 16.808 0 13.223-.789 16.213-4.285 16.237-4.517.032-4.796.903-4.497 14.052.247 10.891.496 12.45 2.032 12.744 1.581.303 1.75-.728 1.75-10.691V93.094l3.408-1.617c5.088-2.415 5.837-5.332 5.439-21.169-.325-12.933-.521-14.103-3.088-18.471-2.806-4.773-7.134-8.151-12.001-9.365l-2.742-.685 2.895-2.704c4.234-3.955 5.86-10.148 4.026-15.336-2.039-5.767-7.682-10.082-13.177-10.075-8.932.011-14.755 5.865-14.75 14.828.003 5.457 2.309 10.03 6.073 12.044 2.103 1.126 2.039 1.21-1.417 1.859-1.991.373-5.612 2.199-8.045 4.057l-4.425 3.377-2.348-2.516C54.159 44.44 47.902 41 45.35 41c-1.328 0-.992-.721 1.451-3.11 3.539-3.46 5.693-9.778 4.696-13.774C48.975 14.01 38.442 8.995 30.241 13.995m2.354 3.532c-4.095 2.136-5.527 4.393-5.563 8.773-.085 10.183 9.792 15.403 16.785 8.871 5.754-5.375 4.861-14.218-1.784-17.654-3.685-1.906-5.769-1.903-9.438.01m41.328 3.396c-2.29 2.29-2.923 3.82-2.923 7.066 0 5.181 1.255 7.574 4.98 9.501 6.327 3.271 13.076.589 14.871-5.911 1.311-4.75.356-8.227-3.046-11.09-4.292-3.611-10.016-3.432-13.882.434M54.5 56.954c-3.982 1.647-6.77 5.804-7.251 10.809-.397 4.128-.086 5.278 2.147 7.931l2.612 3.104-3.431 2.024c-5.166 3.048-6.823 6.327-7.35 14.548-.463 7.206-.445 7.269 2.842 10.035 2.403 2.022 3.325 3.641 3.369 5.921.043 2.16.607 3.244 1.812 3.479 1.491.291 1.75-.45 1.75-5.012 0-5.031-.181-5.423-3-6.487-2.795-1.055-3-1.482-3-6.251 0-7.257 2.151-11.802 6.432-13.591 7.403-3.093 17.619-.809 20.289 4.536.687 1.375 1.256 5.324 1.264 8.775.015 6.177-.032 6.284-2.985 6.875-2.887.577-3 .803-3 5.975 0 4.708.248 5.375 2 5.375 1.667 0 2-.667 2-4 0-2.684.442-4 1.345-4C75.499 107 77 103.477 77 96.076c0-8.677-1.567-11.902-7.368-15.162-2.226-1.252-3.495-2.46-2.819-2.685 3.723-1.241 5.378-11.026 2.731-16.144-2.44-4.718-9.895-7.261-15.044-5.131m-1.045 5.501C48.157 67.752 51.861 77 59.28 77c4.621 0 7.92-3.598 7.92-8.637 0-7.365-8.595-11.059-13.745-5.908"/></svg>