<svg xmlns="http://www.w3.org/2000/svg" viewBox="0 0 110 121"><path fill="currentColor" fill-rule="evenodd" d="M17.11 13.396c-4.984 2.762-5.037 3.251-5.075 47.131-.039 45.499-.213 44.247 6.564 47.079 5.065 2.116 69.273 2.029 73.39-.1 6.167-3.19 6.013-1.968 5.989-47.479-.024-45.179.124-43.951-5.662-46.91-3.379-1.728-72.044-1.474-75.206.279M18 18c-1.934 1.934-2 3.333-2 42.345 0 38.213.099 40.435 1.88 42.046 1.686 1.526 5.553 1.722 37.58 1.905 34.311.196 35.756.128 37.12-1.737 1.171-1.601 1.42-9.01 1.42-42.25 0-38.976-.066-40.375-2-42.309-1.924-1.924-3.333-2-37-2s-35.076.076-37 2m31.721 7.42C40.422 27.921 36.044 34.829 36.044 47c0 8.734 2.131 14.446 7.074 18.961l3.199 2.921-2.909.649C28.599 72.834 24 78.118 24 91.83v7.198l31.25-.264L86.5 98.5l-.056-7.081c-.046-5.795-.538-7.904-2.709-11.608-3.549-6.056-6.717-7.964-17.025-10.25l-2.791-.619 3.534-3.333c1.943-1.833 4.212-4.955 5.04-6.939 1.762-4.216 2.039-18.128.446-22.355-1.759-4.663-6.979-9.249-12.343-10.842-5.726-1.701-4.764-1.696-10.875-.053M52 29.008c-8.111 1.446-12.003 7.029-11.994 17.202.008 9.247 1.414 13.142 6.169 17.092 6.418 5.332 4.451 9.176-5.715 11.169C32.452 76.04 28 81.756 28 90.468V95h54l-.004-5.25C81.99 80.929 78.27 76.746 68 74.012c-8.427-2.243-10.511-6.896-4.711-10.517 4.774-2.982 6.708-7.69 6.709-16.344.002-8.082-1.747-13.101-5.399-15.494-3.396-2.225-8.708-3.342-12.599-2.649"/></svg>