<svg xmlns="http://www.w3.org/2000/svg" viewBox="0 0 124 120"><path fill="currentColor" fill-rule="evenodd" d="M40.03 13.279c-4.372 2.213-7.031 7.367-7.024 13.619.007 7.79 1.407 12.056 5.537 16.881 9.436 11.025 22.621 2.989 21.179-12.909C58.529 17.715 48.67 8.907 40.03 13.279M75 12.704c-2.563.932-7.1 5.634-8.972 9.296-4.199 8.217-3.388 18.102 1.921 23.411 6.156 6.156 15.571 3.282 20.205-6.168 3.015-6.146 3.232-16.235.449-20.857-3.093-5.139-8.681-7.473-13.603-5.682m-35.077 6.219c-2.569 2.569-2.92 3.628-2.901 8.75.051 13.445 9.301 21.94 16.054 14.744 2.104-2.243 2.424-3.538 2.424-9.824 0-6.069-.401-7.826-2.482-10.862-4.324-6.31-8.662-7.241-13.095-2.808m34.497-1.037c-5.381 3.281-8.428 12.658-6.473 19.918 2.078 7.717 8.227 9.412 13.574 3.742 5.989-6.35 6.985-18.131 1.958-23.158-2.876-2.876-4.976-2.992-9.059-.502M16.75 40.08C14.355 41.475 12 46.294 12 49.801 12 58.897 19.893 69 27 69c3.011 0 7.754-2.672 9.054-5.1 3.233-6.042-.562-18.304-7.011-22.65-3.538-2.384-9.272-2.93-12.293-1.17m79.75-.121C91.039 42.233 86 50.924 86 58.068c0 3.366.63 4.762 3.4 7.532 4.077 4.077 8.393 4.485 13.128 1.24 9.098-6.234 12.039-19 5.811-25.228-2.717-2.718-7.633-3.404-11.839-1.653m-76.222 3.134C11.511 46.336 17.915 65 27.795 65c6.684 0 7.406-12.346 1.1-18.797-3.348-3.424-5.586-4.232-8.617-3.11m77.833.65c-3.829 1.855-6.809 6.519-7.692 12.037-1.885 11.786 10.41 12.412 15.685.799 2.248-4.952 2.381-8.441.427-11.232-2.01-2.868-4.737-3.388-8.42-1.604m-42.074 8.431c-4.959 1.423-8.573 4.279-12.198 9.642-1.742 2.576-5.293 6.967-7.892 9.757C29.575 78.414 27 83.72 27 90.01c0 7.891 3.688 13.29 11.232 16.442 5.21 2.177 7.393 1.96 14.608-1.453 7.697-3.641 9.823-3.71 16.111-.524 6.819 3.456 11.785 4.08 16.564 2.083 5.191-2.169 7.395-4.248 9.604-9.058 3.687-8.028 1.81-15.334-6.149-23.945-3.078-3.33-6.591-7.699-7.805-9.708-3.164-5.234-9.405-10.542-13.844-11.775-4.516-1.254-6.625-1.235-11.284.102m-.537 4.185c-3.485 1.624-7.22 5.487-10.77 11.141-1.382 2.2-4.175 5.575-6.209 7.5C33.687 79.577 31 84.94 31 90.01c0 11.448 10.36 16.388 22 10.49 6.313-3.199 10.773-3.159 17.283.156 9.015 4.591 16.407 3.181 20.761-3.96 3.804-6.24 1.493-14.013-6.827-22.962-2.677-2.878-5.888-6.931-7.137-9.005-4.778-7.94-14.451-11.692-21.58-8.37"/></svg>