<svg xmlns="http://www.w3.org/2000/svg" viewBox="0 0 122 127"><path fill="currentColor" fill-rule="evenodd" d="M59.434 13.312c-.312.813-.425 3.209-.251 5.325.228 2.761.826 3.943 2.122 4.189 1.584.3 1.768-.301 1.5-4.913-.298-5.131-2.181-7.701-3.371-4.601m-15.951 5.885c-1.203 3.112 4.64 9.08 6.787 6.933.58-.58-.405-2.395-2.598-4.783-2.958-3.221-3.64-3.571-4.189-2.15m31.132 1.683C71.827 23.79 71.144 27 73.313 27 74.871 27 80 21.863 80 20.302c0-2.331-2.896-2.02-5.385.578M51.357 31.992c-4.98 2.009-6.863 9.194-3.908 14.909 1.669 3.228 7.268 8.384 11.456 10.55 2.723 1.408 3.087 1.335 6.737-1.353 11.547-8.502 14.169-16.713 7.208-22.571-3.444-2.898-6.444-3.2-9.627-.97-2.012 1.409-2.434 1.409-4.446 0-2.461-1.724-4.217-1.858-7.42-.565m.167 4.366c-4.152 3.037-1.377 10.562 5.814 15.772l3.916 2.837 4-3.168c4.349-3.445 7.736-8.279 7.742-11.049.005-2.164-3.453-5.75-5.544-5.75-.851 0-2.651 1.191-4 2.646L61 40.292l-2.452-2.646c-2.758-2.975-4.323-3.262-7.024-1.288M34.951 56.303C21.447 60.121 12.516 71.588 12.6 85c.052 8.263 1.592 12.798 6.419 18.904 5.656 7.156 14 11.096 23.5 11.096 5.924 0 8.198-.504 12.84-2.845L61 109.309l5.641 2.846C71.298 114.504 73.55 115 79.554 115c6.256 0 8.152-.456 13.578-3.265 18.314-9.48 22.064-31.718 7.934-47.047-5.769-6.26-12.598-9.067-22.066-9.074-6.206-.004-8.406.463-12.75 2.707L61 61.034l-4.996-2.532c-6.05-3.066-14.768-3.977-21.053-2.199m-1.488 4.288c-5.676 2.016-10.574 6.36-13.751 12.197-3.701 6.8-4.346 12.506-2.241 19.81 2.197 7.623 9.671 15.342 16.783 17.333 5.788 1.621 15.046 1.019 19.854-1.291 12.188-5.855 18.26-21.621 12.888-33.46-2.705-5.959-4.119-4.428-1.885 2.04 2.25 6.515 2.287 8.076.346 14.613-1.954 6.579-6.547 11.834-12.95 14.816-15.51 7.222-33.553-4.414-33.485-21.595.028-7.027 2.488-12.493 7.765-17.25 4.136-3.729 11.148-6.427 13.93-5.359 2.244.861-.045 3.171-3.906 3.943-6.382 1.276-12.27 7.887-14.212 15.958-.4 1.662-.047 5.043.85 8.126 1.914 6.583 7.331 11.791 14.468 13.911 4.585 1.361 5.508 1.34 10.31-.241 2.9-.956 5.163-2.166 5.029-2.69-.134-.523-1.194-3.652-2.356-6.952-2.542-7.216-2.173-15.349.984-21.73 2.234-4.515 1.923-5.207-2.884-6.417-3.184-.801-5.134-2.327-4.43-3.466.9-1.456 4.261-1.014 8.415 1.106 4.362 2.225 6.508 1.032 2.67-1.484-5.61-3.675-14.965-4.484-22.192-1.918m36.118.423C56.43 66.149 49.922 80.612 54.594 94.322c.877 2.573 2.002 4.678 2.5 4.678 1.292 0 1.105-1.85-.705-7-2.049-5.83-1.256-12.845 2.099-18.571 3.257-5.556 10.661-10.759 15.45-10.857 5.209-.105 4.998 1.677-.428 3.618-2.598.93-4.888 1.854-5.088 2.055-.201.2.624 2.362 1.832 4.803 3.068 6.201 3.086 17.557.039 24.198-2.154 4.696-2.156 4.757-.206 5.8 3.816 2.043 11.659 2.323 16.222.58 18.191-6.947 16.787-32.558-2.059-37.572C79.507 64.792 78.324 62 82.532 62c6.561 0 15.228 6.301 18.568 13.5 4.288 9.241.887 22.599-7.254 28.496-7.173 5.197-17.698 6.2-25.066 2.39-2.115-1.093-3.324-1.242-4.067-.499-1.91 1.91 6.995 5.069 14.287 5.069 11.535 0 21.163-6.431 25.006-16.703 3.796-10.145 1.729-19.613-5.958-27.301-7.686-7.685-18.314-9.902-28.467-5.938M59.63 79.25C58.359 83.993 59.275 93 61.029 93c1.272 0 2.208-7.635 1.471-12-.751-4.445-1.951-5.177-2.87-1.75"/></svg>